<mxfile host="65bd71144e">
    <diagram id="h6p8QyGx0iXgnCsOym1F" name="Seite-1">
        <mxGraphModel dx="1066" dy="609" grid="1" gridSize="10" guides="1" tooltips="1" connect="1" arrows="1" fold="1" page="1" pageScale="1" pageWidth="827" pageHeight="1169" math="0" shadow="0">
            <root>
                <mxCell id="0"/>
                <mxCell id="1" parent="0"/>
                <mxCell id="2" value="Notebook" style="html=1;" vertex="1" parent="1">
                    <mxGeometry x="110" y="170" width="110" height="50" as="geometry"/>
                </mxCell>
                <mxCell id="4" style="edgeStyle=none;html=1;entryX=1;entryY=0.5;entryDx=0;entryDy=0;endArrow=diamond;endFill=0;endSize=31;" edge="1" parent="1" source="3" target="2">
                    <mxGeometry relative="1" as="geometry"/>
                </mxCell>
                <mxCell id="3" value="Harddisk" style="html=1;" vertex="1" parent="1">
                    <mxGeometry x="440" y="170" width="110" height="50" as="geometry"/>
                </mxCell>
            </root>
        </mxGraphModel>
    </diagram>
</mxfile>